<?xml version="1.0" encoding="UTF-8"?>
<svg class="logo" enable-background="new 0 0 195.6 50.22" version="1.1" viewBox="0 0 195.6 50.22" xml:space="preserve" xmlns="http://www.w3.org/2000/svg">
<g class="logo-bars" stroke-width="1.75">
  <line class="logo-bar" x2="9" y1="32.52" y2="32.52" stroke="#db3b3e"/>
  <line class="logo-bar" x1="8.89" x2="17.89" y1="32.52" y2="32.52" stroke="#953131"/>
  <line class="logo-bar" x1="17.78" x2="26.78" y1="32.52" y2="32.52" stroke="#da6d41"/>
  <line class="logo-bar" x1="26.67" x2="35.67" y1="32.52" y2="32.52" stroke="#c19d50"/>
  <line class="logo-bar" x1="35.56" x2="44.56" y1="32.52" y2="32.52" stroke="#97a758"/>
  <line class="logo-bar" x1="44.45" x2="53.45" y1="32.52" y2="32.52" stroke="#8ac554"/>
  <line class="logo-bar" x1="53.34" x2="62.34" y1="32.52" y2="32.52" stroke="#3b733c"/>
  <line class="logo-bar" x1="62.24" x2="71.24" y1="32.52" y2="32.52" stroke="#2b5e5b"/>
  <line class="logo-bar" x1="71.12" x2="80.12" y1="32.52" y2="32.52" stroke="#7da298"/>
  <line class="logo-bar" x1="80.02" x2="89.02" y1="32.52" y2="32.52" stroke="#59b4a3"/>
  <line class="logo-bar" x1="88.91" x2="97.91" y1="32.52" y2="32.52" stroke="#46b4cd"/>
  <line class="logo-bar" x1="97.8" x2="106.8" y1="32.52" y2="32.52" stroke="#507dba"/>
  <line class="logo-bar" x1="106.69" x2="115.69" y1="32.52" y2="32.52" stroke="#475390"/>
  <line class="logo-bar" x1="115.59" x2="124.59" y1="32.52" y2="32.52" stroke="#684b83"/>
  <line class="logo-bar" x1="124.47" x2="133.47" y1="32.52" y2="32.52" stroke="#9a4b98"/>
  <line class="logo-bar" x1="133.36" x2="142.36" y1="32.52" y2="32.52" stroke="#846ead"/>
  <line class="logo-bar" x1="142.25" x2="151.25" y1="32.52" y2="32.52" stroke="#867078"/>
  <line class="logo-bar" x1="151.15" x2="160.15" y1="32.52" y2="32.52" stroke="#71493d"/>
  <line class="logo-bar" x1="160" x2="169" y1="32.52" y2="32.52" stroke="#b58374"/>
  <line class="logo-bar" x1="168.93" x2="177.93" y1="32.52" y2="32.52" stroke="#c39a8e"/>
  <line class="logo-bar" x1="177.9" x2="186.9" y1="32.52" y2="32.52" stroke="#d986b7"/>
  <line class="logo-bar" x1="186.71" x2="195.6" y1="32.52" y2="32.52" stroke="#d44a99"/>
</g>
<g class="logo-title" display="none">
  <path d="m26.4 18.67c-0.05 0.56-0.11 1.15-0.19 1.77-0.07 0.62-0.14 1.2-0.21 1.76-0.07 0.55-0.14 1.05-0.21 1.48s-0.13 0.74-0.19 0.94h-18.26v-1.43c0.89-0.18 1.55-0.38 2-0.6s0.67-0.41 0.67-0.6v-19.35c0-0.16-0.21-0.35-0.63-0.59-0.42-0.23-1.1-0.44-2.04-0.62v-1.43h10.25v1.43c-0.89 0.18-1.56 0.38-2.01 0.61-0.46 0.22-0.68 0.42-0.68 0.61v18.17c0 0.23 0.06 0.44 0.17 0.62s0.3 0.33 0.58 0.45 0.65 0.22 1.11 0.28 1.06 0.1 1.78 0.1h2.21c0.6 0 1.1-0.07 1.51-0.21s0.77-0.37 1.08-0.69 0.6-0.74 0.85-1.26 0.52-1.16 0.79-1.93z"/>
  <path d="m47.11 22.42c-0.55 0.38-1.12 0.74-1.71 1.07-0.59 0.34-1.15 0.64-1.68 0.89s-1.01 0.45-1.44 0.6c-0.44 0.14-0.77 0.22-1.01 0.22-0.48 0-0.89-0.27-1.22-0.82s-0.53-1.31-0.6-2.28c-0.59 0.59-1.17 1.08-1.77 1.48-0.59 0.4-1.17 0.72-1.72 0.96s-1.08 0.41-1.59 0.52-0.97 0.16-1.39 0.16c-0.55 0-1.08-0.09-1.61-0.28s-1-0.47-1.43-0.84c-0.42-0.37-0.76-0.84-1.02-1.41s-0.39-1.23-0.39-1.98c0-0.88 0.16-1.64 0.48-2.26s0.72-1.17 1.2-1.65c0.31-0.31 0.67-0.61 1.08-0.91s0.96-0.58 1.64-0.85 1.54-0.54 2.58-0.79 2.34-0.5 3.92-0.73v-2.31c0-0.4-0.04-0.78-0.12-1.12s-0.21-0.64-0.41-0.89c-0.19-0.25-0.46-0.44-0.78-0.58-0.33-0.14-0.74-0.2-1.23-0.2-0.31 0-0.62 0.06-0.94 0.18s-0.59 0.28-0.82 0.5-0.42 0.48-0.56 0.78c-0.14 0.31-0.19 0.65-0.15 1.05 0.01 0.08-0.09 0.18-0.31 0.29-0.22 0.12-0.5 0.24-0.84 0.36s-0.71 0.25-1.12 0.37-0.8 0.23-1.18 0.31c-0.38 0.09-0.72 0.15-1.02 0.2s-0.5 0.06-0.6 0.03l-0.41-1.05c0.31-0.78 0.8-1.51 1.48-2.18 0.67-0.67 1.46-1.26 2.35-1.76 0.9-0.5 1.88-0.89 2.94-1.18s2.13-0.43 3.21-0.43c0.9 0 1.67 0.12 2.32 0.35s1.19 0.56 1.61 0.99c0.42 0.42 0.74 0.92 0.95 1.49s0.31 1.19 0.31 1.86v9.41c0 0.55 0.07 0.94 0.22 1.17 0.14 0.23 0.33 0.35 0.57 0.35 0.09 0 0.19-0.01 0.28-0.02s0.22-0.04 0.35-0.08 0.3-0.09 0.48-0.17c0.18-0.07 0.4-0.16 0.66-0.26zm-11.79-0.64c0.25 0 0.51-0.03 0.78-0.09s0.58-0.16 0.91-0.31 0.7-0.36 1.09-0.62c0.4-0.27 0.84-0.61 1.34-1.02v-4.33c-0.78 0.13-1.44 0.26-1.97 0.38s-0.98 0.25-1.35 0.38c-0.36 0.13-0.66 0.27-0.89 0.41s-0.43 0.3-0.6 0.47c-0.34 0.34-0.61 0.7-0.82 1.09s-0.31 0.86-0.31 1.41c0 0.44 0.06 0.81 0.19 1.09 0.12 0.29 0.28 0.52 0.47 0.68 0.19 0.17 0.39 0.29 0.6 0.35 0.2 0.08 0.39 0.11 0.56 0.11z"/>
  <path d="m60.6 24.61v-1.43c0.94-0.25 1.6-0.46 1.99-0.64s0.59-0.36 0.59-0.55v-8.87c0-0.72-0.04-1.31-0.11-1.79-0.07-0.47-0.19-0.86-0.34-1.14-0.16-0.29-0.36-0.49-0.62-0.6-0.26-0.12-0.59-0.18-0.98-0.18-0.31 0-0.64 0.04-1 0.13-0.35 0.09-0.74 0.23-1.16 0.43s-0.89 0.48-1.41 0.83c-0.51 0.35-1.08 0.79-1.71 1.33v9.86c0 0.2 0.22 0.4 0.66 0.61s1.09 0.4 1.93 0.59v1.43h-9.86v-1.43c0.86-0.22 1.5-0.42 1.93-0.6s0.65-0.37 0.65-0.6v-10.84c0-0.51-0.01-0.91-0.03-1.21s-0.11-0.53-0.26-0.7c-0.16-0.17-0.41-0.29-0.76-0.37s-0.86-0.16-1.52-0.23v-1.37c0.63-0.06 1.21-0.14 1.75-0.23s1.06-0.19 1.55-0.3c0.5-0.11 0.98-0.24 1.45-0.38s0.94-0.31 1.41-0.49l0.82 0.82 0.22 2.81c1.52-1.3 2.95-2.23 4.27-2.79s2.49-0.84 3.51-0.84c0.56 0 1.1 0.09 1.62 0.26 0.52 0.18 0.98 0.46 1.38 0.86s0.72 0.92 0.96 1.55c0.24 0.64 0.36 1.41 0.36 2.32v11.13c0 0.09 0.04 0.18 0.12 0.26s0.22 0.17 0.41 0.26 0.46 0.19 0.8 0.3 0.76 0.23 1.27 0.36v1.43h-9.89z"/>
  <path d="m88.43 12.09c0 1-0.22 1.92-0.66 2.74-0.44 0.83-1.03 1.54-1.78 2.13-0.74 0.59-1.6 1.06-2.58 1.39s-2 0.5-3.09 0.5h-0.19c-0.49 0.46-0.81 0.82-0.95 1.1s-0.2 0.46-0.2 0.54c0 0.12 0.04 0.23 0.12 0.34s0.26 0.22 0.56 0.33 0.74 0.23 1.33 0.34c0.59 0.12 1.4 0.24 2.41 0.37 1.52 0.2 2.79 0.43 3.79 0.71s1.8 0.62 2.39 1.01 1.01 0.84 1.24 1.35 0.35 1.08 0.35 1.72c0 0.61-0.14 1.22-0.42 1.84-0.28 0.61-0.67 1.2-1.16 1.77s-1.07 1.09-1.74 1.57-1.38 0.9-2.16 1.26c-0.77 0.36-1.58 0.64-2.42 0.84s-1.68 0.3-2.51 0.3c-0.68 0-1.38-0.04-2.12-0.13-0.74-0.08-1.46-0.22-2.17-0.4s-1.38-0.41-2.02-0.69-1.2-0.62-1.68-1.02-0.87-0.85-1.15-1.36c-0.29-0.51-0.43-1.07-0.43-1.7 0-0.32 0.07-0.66 0.21-1s0.39-0.7 0.75-1.08 0.86-0.8 1.49-1.25 1.45-0.95 2.45-1.49c-1.48-0.6-2.23-1.24-2.23-1.91 0-0.14 0.06-0.33 0.19-0.58 0.12-0.24 0.33-0.52 0.61-0.84s0.65-0.67 1.1-1.06c0.46-0.39 1.01-0.81 1.66-1.25-0.73-0.19-1.39-0.47-1.99-0.82s-1.11-0.77-1.53-1.25-0.75-1.02-0.99-1.62c-0.23-0.6-0.35-1.24-0.35-1.93 0-0.95 0.23-1.85 0.7-2.7s1.09-1.59 1.88-2.23c0.78-0.63 1.69-1.13 2.73-1.5s2.12-0.56 3.25-0.56c0.9 0 1.74 0.12 2.52 0.37s1.48 0.58 2.11 1c1.13-0.14 2.16-0.36 3.08-0.64 0.92-0.29 1.64-0.53 2.18-0.72l0.55 0.72c-0.04 0.14-0.1 0.31-0.19 0.51-0.08 0.2-0.18 0.39-0.27 0.6-0.1 0.2-0.2 0.4-0.31 0.61-0.11 0.2-0.22 0.38-0.34 0.54-0.44 0.08-0.89 0.14-1.35 0.2-0.46 0.05-0.96 0.09-1.5 0.12 0.27 0.46 0.49 0.93 0.64 1.42 0.12 0.45 0.19 0.96 0.19 1.49zm-6.68 13.34c-0.62-0.08-1.21-0.17-1.76-0.27s-1.06-0.21-1.54-0.31c-0.6 0.42-1.07 0.79-1.42 1.11-0.34 0.33-0.6 0.62-0.77 0.89s-0.28 0.51-0.32 0.72c-0.05 0.22-0.07 0.42-0.07 0.62 0 0.43 0.16 0.84 0.48 1.24s0.76 0.75 1.32 1.05 1.22 0.54 1.98 0.71 1.59 0.26 2.47 0.26c0.77 0 1.43-0.09 1.99-0.28s1.02-0.45 1.4-0.77 0.65-0.7 0.83-1.11c0.18-0.42 0.27-0.85 0.27-1.31 0-0.25-0.06-0.49-0.18-0.74s-0.35-0.48-0.7-0.7-0.85-0.43-1.48-0.61c-0.64-0.21-1.47-0.37-2.5-0.5zm2.19-12.54c0-0.66-0.09-1.29-0.26-1.86-0.18-0.58-0.43-1.08-0.77-1.51s-0.76-0.77-1.26-1.02-1.08-0.38-1.75-0.38c-0.33 0-0.66 0.08-1 0.23s-0.64 0.38-0.92 0.67c-0.27 0.3-0.5 0.68-0.67 1.13-0.18 0.46-0.26 0.99-0.26 1.6 0 0.65 0.08 1.27 0.23 1.85 0.16 0.58 0.4 1.08 0.73 1.51s0.75 0.77 1.26 1.02 1.11 0.38 1.82 0.38c0.38 0 0.74-0.07 1.08-0.22 0.35-0.15 0.65-0.37 0.91-0.67s0.47-0.67 0.63-1.12 0.23-1 0.23-1.61z"/>
  <path d="m114.32 22.42c-0.48 0.31-1.01 0.63-1.59 0.96s-1.14 0.63-1.68 0.9-1.02 0.5-1.44 0.66-0.71 0.25-0.87 0.25c-0.23 0-0.46-0.04-0.67-0.13s-0.42-0.25-0.6-0.49-0.35-0.57-0.5-1-0.25-0.97-0.33-1.63c-0.81 0.7-1.53 1.27-2.18 1.69s-1.23 0.75-1.76 0.99-1.01 0.39-1.45 0.46-0.87 0.11-1.29 0.11c-0.61 0-1.21-0.08-1.8-0.25s-1.11-0.48-1.58-0.93-0.85-1.06-1.13-1.85c-0.29-0.78-0.43-1.78-0.43-3.01v-8.01c0-0.62-0.01-1.11-0.03-1.45s-0.1-0.6-0.25-0.78-0.38-0.3-0.7-0.36-0.78-0.13-1.38-0.19v-1.37c0.65-0.05 1.25-0.11 1.79-0.18 0.54-0.06 1.06-0.14 1.55-0.22 0.5-0.08 0.99-0.19 1.48-0.3s1.01-0.26 1.55-0.43l0.68 0.9v11.17c0 0.81 0.05 1.47 0.15 1.97s0.24 0.9 0.44 1.18 0.43 0.47 0.71 0.58c0.28 0.1 0.6 0.16 0.97 0.16 0.27 0 0.57-0.03 0.89-0.1 0.32-0.06 0.67-0.19 1.06-0.36 0.38-0.18 0.8-0.41 1.25-0.71s0.94-0.68 1.48-1.15v-8.34c0-0.59-0.02-1.05-0.07-1.41s-0.15-0.62-0.32-0.82-0.43-0.33-0.77-0.41-0.82-0.13-1.42-0.16v-1.37c1.3-0.12 2.48-0.28 3.55-0.48 1.06-0.2 2.06-0.42 3-0.65l0.72 0.9v12.31c0 0.4 0.01 0.74 0.02 1.01s0.04 0.49 0.07 0.66 0.08 0.32 0.14 0.42 0.13 0.19 0.23 0.25c0.16 0.1 0.37 0.13 0.65 0.07s0.75-0.23 1.42-0.52z"/>
  <path d="m134.74 22.42c-0.55 0.38-1.12 0.74-1.71 1.07s-1.15 0.64-1.68 0.89-1.01 0.45-1.44 0.6-0.77 0.22-1.01 0.22c-0.48 0-0.89-0.27-1.22-0.82s-0.53-1.31-0.6-2.28c-0.59 0.59-1.17 1.08-1.77 1.48s-1.16 0.72-1.72 0.96-1.08 0.41-1.59 0.52-0.97 0.16-1.39 0.16c-0.55 0-1.08-0.09-1.61-0.28s-1-0.47-1.43-0.84-0.76-0.84-1.02-1.41-0.39-1.23-0.39-1.98c0-0.88 0.16-1.64 0.48-2.26s0.72-1.17 1.2-1.65c0.31-0.31 0.67-0.61 1.08-0.91s0.96-0.58 1.64-0.85 1.54-0.54 2.58-0.79 2.34-0.5 3.92-0.73v-2.31c0-0.4-0.04-0.78-0.12-1.12s-0.21-0.64-0.41-0.89c-0.19-0.25-0.46-0.44-0.78-0.58s-0.73-0.2-1.23-0.2c-0.31 0-0.62 0.06-0.94 0.18s-0.59 0.28-0.82 0.5-0.42 0.48-0.56 0.78c-0.14 0.31-0.19 0.65-0.15 1.05 0.01 0.08-0.09 0.18-0.31 0.29s-0.5 0.24-0.84 0.36-0.71 0.25-1.12 0.37-0.8 0.23-1.18 0.31c-0.38 0.09-0.72 0.15-1.02 0.2s-0.5 0.06-0.6 0.03l-0.41-1.05c0.31-0.78 0.8-1.51 1.48-2.18 0.67-0.67 1.46-1.26 2.35-1.76 0.9-0.5 1.88-0.89 2.94-1.18s2.13-0.43 3.21-0.43c0.9 0 1.67 0.12 2.32 0.35s1.19 0.56 1.61 0.99c0.42 0.42 0.74 0.92 0.95 1.49s0.31 1.19 0.31 1.86v9.41c0 0.55 0.07 0.94 0.22 1.17s0.33 0.35 0.57 0.35c0.09 0 0.19-0.01 0.28-0.02s0.22-0.04 0.35-0.08 0.3-0.09 0.48-0.17 0.4-0.16 0.66-0.26zm-11.8-0.64c0.25 0 0.51-0.03 0.78-0.09s0.58-0.16 0.91-0.31 0.7-0.36 1.09-0.62 0.84-0.61 1.34-1.02v-4.33c-0.78 0.13-1.44 0.26-1.97 0.38s-0.98 0.25-1.35 0.38c-0.36 0.13-0.66 0.27-0.89 0.41s-0.43 0.3-0.6 0.47c-0.34 0.34-0.61 0.7-0.82 1.09s-0.31 0.86-0.31 1.41c0 0.44 0.06 0.81 0.19 1.09s0.28 0.52 0.47 0.68 0.39 0.29 0.6 0.35 0.39 0.11 0.56 0.11z"/>
  <path d="m152.02 12.09c0 1-0.22 1.92-0.66 2.74-0.44 0.83-1.03 1.54-1.78 2.13-0.74 0.59-1.6 1.06-2.58 1.39s-2 0.5-3.09 0.5h-0.19c-0.49 0.46-0.81 0.82-0.95 1.1s-0.2 0.46-0.2 0.54c0 0.12 0.04 0.23 0.12 0.34s0.26 0.22 0.56 0.33 0.74 0.23 1.33 0.34 1.4 0.24 2.41 0.37c1.52 0.2 2.79 0.43 3.79 0.71s1.8 0.62 2.39 1.01 1.01 0.84 1.24 1.35 0.35 1.08 0.35 1.72c0 0.61-0.14 1.22-0.42 1.84s-0.67 1.2-1.16 1.77-1.07 1.09-1.74 1.57-1.38 0.9-2.16 1.26-1.58 0.64-2.42 0.84-1.68 0.3-2.51 0.3c-0.68 0-1.38-0.04-2.12-0.13s-1.46-0.22-2.17-0.4-1.38-0.41-2.02-0.69-1.2-0.62-1.68-1.02-0.87-0.85-1.15-1.36-0.43-1.07-0.43-1.7c0-0.32 0.07-0.66 0.21-1s0.39-0.7 0.75-1.08 0.86-0.8 1.49-1.25 1.45-0.95 2.45-1.49c-1.48-0.6-2.23-1.24-2.23-1.91 0-0.14 0.06-0.33 0.19-0.58s0.33-0.52 0.61-0.84 0.65-0.67 1.1-1.06 1.01-0.81 1.66-1.25c-0.73-0.19-1.39-0.47-1.99-0.82s-1.11-0.77-1.53-1.25-0.75-1.02-0.99-1.62c-0.23-0.6-0.35-1.24-0.35-1.93 0-0.95 0.23-1.85 0.7-2.7s1.09-1.59 1.88-2.23c0.78-0.63 1.69-1.13 2.73-1.5s2.12-0.56 3.25-0.56c0.9 0 1.74 0.12 2.52 0.37s1.48 0.58 2.11 1c1.13-0.14 2.16-0.36 3.08-0.64 0.92-0.29 1.64-0.53 2.18-0.72l0.55 0.72c-0.04 0.14-0.1 0.31-0.19 0.51s-0.18 0.39-0.27 0.6c-0.1 0.2-0.2 0.4-0.31 0.61-0.11 0.2-0.22 0.38-0.34 0.54-0.44 0.08-0.89 0.14-1.35 0.2-0.46 0.05-0.96 0.09-1.5 0.12 0.27 0.46 0.49 0.93 0.64 1.42s0.19 0.96 0.19 1.49zm-6.68 13.34c-0.62-0.08-1.21-0.17-1.76-0.27s-1.06-0.21-1.54-0.31c-0.6 0.42-1.07 0.79-1.42 1.11s-0.6 0.62-0.77 0.89-0.28 0.51-0.32 0.72-0.07 0.42-0.07 0.62c0 0.43 0.16 0.84 0.48 1.24s0.76 0.75 1.32 1.05 1.22 0.54 1.98 0.71 1.59 0.26 2.47 0.26c0.77 0 1.43-0.09 1.99-0.28s1.02-0.45 1.4-0.77 0.65-0.7 0.83-1.11 0.27-0.85 0.27-1.31c0-0.25-0.06-0.49-0.18-0.74s-0.35-0.48-0.7-0.7-0.85-0.43-1.48-0.61-1.48-0.37-2.5-0.5zm2.18-12.54c0-0.66-0.09-1.29-0.26-1.86-0.18-0.58-0.43-1.08-0.77-1.51s-0.76-0.77-1.26-1.02-1.08-0.38-1.75-0.38c-0.32 0-0.66 0.08-1 0.23s-0.64 0.38-0.92 0.67c-0.27 0.3-0.5 0.68-0.67 1.13-0.18 0.46-0.26 0.99-0.26 1.6 0 0.65 0.08 1.27 0.23 1.85 0.16 0.58 0.4 1.08 0.73 1.51s0.75 0.77 1.26 1.02 1.11 0.38 1.82 0.38c0.38 0 0.74-0.07 1.08-0.22 0.35-0.15 0.65-0.37 0.91-0.67s0.47-0.67 0.63-1.12 0.23-1 0.23-1.61z"/>
  <path d="m172.05 13.87c-0.12 0.13-0.29 0.27-0.51 0.43s-0.46 0.31-0.72 0.45-0.52 0.28-0.79 0.41-0.5 0.23-0.71 0.31h-9.24c0.03 0.94 0.15 1.8 0.38 2.59s0.55 1.47 0.97 2.04 0.92 1.02 1.51 1.34 1.27 0.48 2.04 0.48c0.4 0 0.8-0.02 1.18-0.07s0.8-0.15 1.25-0.32 0.95-0.41 1.51-0.71 1.22-0.73 1.99-1.26c0.08 0.04 0.17 0.12 0.28 0.23s0.22 0.24 0.31 0.38 0.19 0.26 0.26 0.38 0.13 0.2 0.16 0.25c-0.9 0.91-1.71 1.65-2.42 2.23s-1.4 1.02-2.06 1.34-1.31 0.54-1.96 0.65-1.37 0.18-2.15 0.18c-1.11 0-2.15-0.22-3.13-0.66s-1.84-1.07-2.58-1.87-1.32-1.78-1.75-2.91-0.64-2.39-0.64-3.77c0-1.77 0.34-3.35 1.01-4.74s1.68-2.57 3.02-3.54c0.34-0.25 0.72-0.48 1.14-0.71s0.87-0.42 1.33-0.59c0.46-0.16 0.94-0.29 1.44-0.39s0.99-0.15 1.48-0.15c1.28 0 2.38 0.22 3.31 0.66s1.7 1.03 2.31 1.77 1.06 1.59 1.35 2.55c0.28 0.95 0.43 1.96 0.43 3.02zm-8.11-5.67c-0.61 0-1.14 0.12-1.58 0.35s-0.82 0.57-1.12 1.02c-0.31 0.44-0.55 0.98-0.72 1.6s-0.3 1.33-0.38 2.11h6.5c0.3 0 0.5-0.05 0.6-0.15s0.15-0.28 0.15-0.56c0-0.39-0.05-0.84-0.16-1.34-0.1-0.5-0.29-0.98-0.56-1.43s-0.62-0.83-1.06-1.14-1.01-0.46-1.67-0.46z"/>
  <path d="m188.59 19.08c0 0.93-0.14 1.72-0.42 2.37s-0.64 1.21-1.09 1.67-0.95 0.82-1.51 1.09-1.13 0.48-1.71 0.63-1.13 0.24-1.66 0.28-0.98 0.07-1.36 0.07c-0.42 0-0.87-0.03-1.36-0.09s-0.99-0.15-1.49-0.26-1.01-0.27-1.51-0.45-0.97-0.39-1.4-0.62c-0.09-0.04-0.16-0.27-0.2-0.69s-0.06-0.93-0.05-1.51 0.05-1.2 0.11-1.84 0.15-1.2 0.28-1.68l1.58 0.22c0.13 0.69 0.35 1.32 0.65 1.88s0.66 1.03 1.07 1.43 0.88 0.69 1.4 0.91 1.05 0.32 1.61 0.32c0.94 0 1.63-0.17 2.09-0.51s0.68-0.9 0.68-1.68c0-0.52-0.13-0.99-0.4-1.41s-0.62-0.8-1.06-1.15-0.94-0.68-1.5-0.99-1.14-0.61-1.74-0.93c-0.55-0.27-1.09-0.58-1.63-0.91s-1.02-0.7-1.45-1.11-0.78-0.86-1.05-1.36c-0.27-0.49-0.41-1.05-0.41-1.68 0-0.81 0.2-1.53 0.6-2.18s0.92-1.19 1.57-1.64 1.39-0.79 2.23-1.03c0.83-0.24 1.69-0.36 2.58-0.36 0.56 0 1.12 0.04 1.69 0.11s1.11 0.17 1.63 0.3 1 0.29 1.45 0.47c0.44 0.18 0.81 0.39 1.11 0.63 0.08 0.07 0.1 0.28 0.05 0.65s-0.13 0.79-0.25 1.25-0.27 0.92-0.44 1.36-0.33 0.77-0.49 0.98l-1.35-0.16c-0.32-1.15-0.79-2.02-1.41-2.63s-1.35-0.91-2.21-0.91c-0.78 0-1.39 0.18-1.82 0.54s-0.64 0.81-0.64 1.36c0 0.42 0.1 0.79 0.31 1.11 0.21 0.33 0.51 0.63 0.89 0.92s0.85 0.58 1.41 0.87 1.18 0.62 1.87 0.99c0.56 0.29 1.13 0.59 1.7 0.92s1.09 0.7 1.54 1.12c0.46 0.42 0.83 0.91 1.11 1.45 0.26 0.52 0.4 1.15 0.4 1.88z"/>
</g>
<g class="logo-subtitle" display="none">
  <path d="m52.48 43.06c0 0.33-0.04 0.65-0.13 0.96s-0.21 0.61-0.37 0.89-0.35 0.54-0.57 0.77c-0.22 0.24-0.46 0.44-0.73 0.61s-0.55 0.3-0.86 0.4c-0.3 0.1-0.62 0.14-0.94 0.14-0.5 0-0.96-0.09-1.37-0.26s-0.76-0.42-1.05-0.73-0.51-0.67-0.67-1.1-0.24-0.89-0.24-1.38c0-0.48 0.09-0.95 0.27-1.41s0.43-0.86 0.75-1.21 0.7-0.63 1.14-0.85c0.44-0.21 0.93-0.32 1.45-0.32 0.5 0 0.95 0.09 1.36 0.26s0.76 0.42 1.05 0.73 0.51 0.68 0.67 1.1 0.24 0.9 0.24 1.4zm-1.85 0.33c0-0.39-0.04-0.75-0.12-1.1s-0.19-0.66-0.34-0.92c-0.15-0.27-0.32-0.48-0.53-0.63-0.21-0.16-0.44-0.23-0.68-0.23-0.3 0-0.55 0.07-0.75 0.2s-0.36 0.32-0.48 0.56-0.2 0.52-0.25 0.84c-0.05 0.33-0.07 0.68-0.07 1.05 0 0.39 0.05 0.75 0.14 1.08 0.09 0.34 0.21 0.63 0.37 0.88 0.15 0.25 0.33 0.45 0.53 0.59s0.42 0.22 0.64 0.22c0.29 0 0.54-0.06 0.73-0.17s0.35-0.28 0.48-0.49c0.12-0.21 0.21-0.48 0.26-0.79 0.05-0.33 0.07-0.69 0.07-1.09z"/>
  <path d="m59.33 35.96c0 0.05-0.02 0.12-0.07 0.19-0.05 0.08-0.11 0.16-0.18 0.24-0.07 0.09-0.16 0.17-0.25 0.26s-0.18 0.17-0.27 0.24-0.17 0.14-0.25 0.19c-0.08 0.06-0.14 0.1-0.19 0.12-0.23-0.29-0.46-0.5-0.68-0.63s-0.41-0.19-0.56-0.19c-0.13 0-0.25 0.04-0.36 0.12s-0.22 0.22-0.3 0.42-0.16 0.49-0.21 0.85-0.08 0.82-0.08 1.39v0.63h1.82l0.27 0.26c-0.04 0.08-0.1 0.17-0.16 0.26-0.07 0.09-0.13 0.18-0.2 0.26-0.06 0.09-0.13 0.16-0.19 0.23s-0.12 0.12-0.16 0.15c-0.11-0.06-0.27-0.12-0.48-0.17-0.21-0.06-0.51-0.08-0.9-0.08v4.93c0 0.03 0.02 0.06 0.07 0.09s0.13 0.06 0.24 0.09c0.12 0.03 0.27 0.07 0.45 0.11 0.19 0.04 0.43 0.09 0.71 0.14v0.54h-4.2v-0.53c0.34-0.06 0.58-0.13 0.74-0.22 0.15-0.08 0.23-0.16 0.23-0.22v-4.93h-0.87l-0.2-0.26 0.57-0.65h0.51v-0.22c0-0.4 0.03-0.76 0.08-1.09 0.06-0.33 0.14-0.62 0.24-0.89 0.11-0.27 0.23-0.51 0.39-0.73 0.15-0.22 0.33-0.42 0.52-0.6 0.18-0.18 0.37-0.32 0.56-0.45 0.19-0.12 0.38-0.23 0.57-0.31s0.37-0.14 0.55-0.18 0.34-0.06 0.49-0.06c0.22 0 0.44 0.03 0.65 0.09s0.4 0.13 0.56 0.2c0.16 0.08 0.3 0.15 0.4 0.23s0.14 0.14 0.14 0.18z"/>
  <path d="m61.65 46.61v-0.53c0.36-0.04 0.61-0.11 0.77-0.2s0.23-0.17 0.23-0.24v-7.18c-0.32-0.3-0.65-0.48-1-0.53v-0.55h2.04c0.07 0 0.13 0.01 0.18 0.02s0.09 0.04 0.14 0.08 0.1 0.1 0.16 0.17c0.06 0.08 0.13 0.18 0.22 0.3l4.48 6.21v-5.79c0-0.03-0.02-0.06-0.05-0.1s-0.08-0.08-0.16-0.12-0.18-0.08-0.31-0.12-0.29-0.07-0.49-0.1v-0.55h3.11v0.54c-0.35 0.05-0.61 0.12-0.77 0.21s-0.24 0.17-0.24 0.24v8.46c-0.47-0.04-0.84-0.13-1.13-0.27-0.28-0.14-0.49-0.31-0.62-0.49l-4.47-6.2v5.76c0 0.03 0.02 0.06 0.05 0.11 0.03 0.04 0.09 0.08 0.17 0.12s0.18 0.08 0.31 0.12 0.29 0.07 0.48 0.1v0.54h-3.1z" display="inline"/>
  <path d="m77.62 42.58c-0.04 0.05-0.11 0.1-0.19 0.16s-0.17 0.12-0.27 0.17c-0.1 0.06-0.2 0.11-0.3 0.15-0.1 0.05-0.19 0.09-0.27 0.12h-3.46c0.01 0.35 0.06 0.68 0.14 0.97 0.09 0.3 0.21 0.55 0.36 0.77s0.35 0.38 0.57 0.5 0.48 0.18 0.77 0.18c0.15 0 0.3-0.01 0.44-0.02 0.14-0.02 0.3-0.06 0.47-0.12s0.36-0.15 0.57-0.27c0.21-0.11 0.46-0.27 0.75-0.47 0.03 0.01 0.06 0.04 0.11 0.09 0.04 0.04 0.08 0.09 0.12 0.14s0.07 0.1 0.1 0.14 0.05 0.08 0.06 0.1c-0.34 0.34-0.64 0.62-0.91 0.83-0.27 0.22-0.53 0.38-0.77 0.5-0.25 0.12-0.49 0.2-0.74 0.25-0.24 0.04-0.51 0.07-0.81 0.07-0.41 0-0.81-0.08-1.18-0.25s-0.69-0.4-0.97-0.7-0.49-0.67-0.65-1.09-0.24-0.9-0.24-1.41c0-0.66 0.13-1.26 0.38-1.78s0.63-0.96 1.13-1.33c0.13-0.09 0.27-0.18 0.43-0.27 0.16-0.08 0.33-0.16 0.5-0.22s0.35-0.11 0.54-0.15 0.37-0.05 0.56-0.05c0.48 0 0.89 0.08 1.24 0.25s0.64 0.39 0.86 0.66c0.23 0.28 0.4 0.6 0.51 0.96 0.1 0.35 0.15 0.73 0.15 1.12zm-3.04-2.12c-0.23 0-0.43 0.04-0.59 0.13s-0.31 0.22-0.42 0.38c-0.11 0.17-0.2 0.37-0.27 0.6-0.06 0.23-0.11 0.5-0.14 0.79h2.44c0.11 0 0.19-0.02 0.22-0.05 0.04-0.04 0.06-0.11 0.06-0.21 0-0.15-0.02-0.31-0.06-0.5s-0.11-0.37-0.21-0.53c-0.1-0.17-0.23-0.31-0.4-0.43s-0.38-0.18-0.63-0.18z"/>
  <path d="m88.46 40.33c-0.14 0.04-0.25 0.07-0.33 0.1s-0.15 0.06-0.21 0.1c-0.05 0.03-0.09 0.07-0.12 0.11s-0.05 0.09-0.07 0.15l-1.62 5.39c-0.03 0.11-0.09 0.2-0.18 0.27-0.09 0.08-0.19 0.14-0.3 0.19s-0.22 0.09-0.32 0.12-0.19 0.05-0.25 0.07l-1.87-4.28-1.49 3.63c-0.04 0.11-0.1 0.21-0.19 0.28-0.09 0.08-0.18 0.14-0.29 0.19-0.1 0.05-0.2 0.09-0.31 0.12-0.1 0.03-0.19 0.05-0.25 0.06l-1.97-6.04c-0.03-0.09-0.11-0.17-0.24-0.25s-0.32-0.15-0.56-0.2v-0.53h3.32v0.53c-0.21 0.03-0.37 0.05-0.49 0.09-0.12 0.03-0.2 0.07-0.25 0.11s-0.08 0.09-0.08 0.13c0 0.05 0 0.09 0.02 0.13l1.1 3.46 1.75-4.45h0.56l1.84 4.45 1.06-3.46c0.02-0.05 0.03-0.1 0.03-0.15 0-0.04-0.02-0.08-0.07-0.12-0.04-0.04-0.11-0.07-0.2-0.1s-0.23-0.06-0.39-0.09v-0.53h2.38v0.52z"/>
  <path d="m94.52 46.61v-0.53c0.22-0.04 0.4-0.09 0.55-0.14s0.27-0.1 0.36-0.14c0.09-0.05 0.15-0.09 0.19-0.13s0.06-0.08 0.06-0.11v-2.81c-0.18-0.39-0.37-0.79-0.59-1.21-0.22-0.41-0.44-0.82-0.67-1.2-0.22-0.39-0.44-0.75-0.66-1.08s-0.41-0.61-0.58-0.84c-0.04-0.05-0.09-0.1-0.14-0.15-0.05-0.04-0.11-0.08-0.2-0.11s-0.19-0.05-0.31-0.07c-0.13-0.02-0.29-0.03-0.5-0.03l-0.03-0.53c0.14-0.02 0.3-0.04 0.49-0.06 0.18-0.02 0.37-0.05 0.55-0.07s0.35-0.04 0.51-0.05c0.16-0.02 0.29-0.02 0.39-0.02 0.14 0 0.27 0.03 0.41 0.09s0.25 0.14 0.33 0.25c0.18 0.24 0.37 0.52 0.57 0.84 0.2 0.31 0.4 0.65 0.6 1s0.4 0.71 0.59 1.08 0.38 0.73 0.55 1.08l1.71-3.24c0.07-0.13 0.05-0.23-0.07-0.3s-0.37-0.13-0.74-0.18v-0.57h3.06v0.54c-0.33 0.06-0.58 0.13-0.74 0.2s-0.28 0.16-0.34 0.28l-2.35 4.38v2.77c0 0.03 0.02 0.07 0.05 0.11s0.1 0.09 0.18 0.14 0.21 0.1 0.36 0.15 0.34 0.1 0.57 0.14v0.54h-4.16z"/>
  <path d="m106.93 43.06c0 0.33-0.04 0.65-0.13 0.96s-0.21 0.61-0.37 0.89-0.35 0.54-0.57 0.77c-0.22 0.24-0.46 0.44-0.73 0.61s-0.55 0.3-0.86 0.4c-0.3 0.1-0.62 0.14-0.94 0.14-0.5 0-0.96-0.09-1.37-0.26s-0.76-0.42-1.05-0.73-0.51-0.67-0.67-1.1-0.24-0.89-0.24-1.38c0-0.48 0.09-0.95 0.27-1.41 0.18-0.45 0.43-0.86 0.75-1.21s0.7-0.63 1.14-0.85c0.44-0.21 0.93-0.32 1.45-0.32 0.5 0 0.95 0.09 1.36 0.26 0.41 0.18 0.76 0.42 1.05 0.73s0.51 0.68 0.67 1.1 0.24 0.9 0.24 1.4zm-1.84 0.33c0-0.39-0.04-0.75-0.12-1.1s-0.19-0.66-0.34-0.92c-0.15-0.27-0.32-0.48-0.53-0.63-0.21-0.16-0.44-0.23-0.68-0.23-0.3 0-0.56 0.07-0.75 0.2-0.2 0.13-0.36 0.32-0.48 0.56s-0.2 0.52-0.25 0.84c-0.05 0.33-0.07 0.68-0.07 1.05 0 0.39 0.05 0.75 0.14 1.08 0.09 0.34 0.21 0.63 0.37 0.88 0.15 0.25 0.33 0.45 0.53 0.59s0.42 0.22 0.64 0.22c0.29 0 0.54-0.06 0.73-0.17s0.35-0.28 0.48-0.49c0.12-0.21 0.21-0.48 0.26-0.79 0.04-0.33 0.07-0.69 0.07-1.09z"/>
  <path d="m113.67 39.9c0.03 0.02 0.05 0.08 0.05 0.19s-0.01 0.23-0.03 0.39c-0.02 0.15-0.05 0.32-0.09 0.51s-0.08 0.37-0.12 0.54c-0.04 0.18-0.09 0.34-0.14 0.49s-0.09 0.27-0.13 0.36h-0.53c-0.02-0.19-0.04-0.38-0.09-0.56-0.04-0.18-0.1-0.33-0.16-0.46-0.07-0.13-0.15-0.23-0.24-0.31s-0.2-0.11-0.32-0.11c-0.1 0-0.2 0.02-0.32 0.06-0.11 0.04-0.24 0.11-0.36 0.21-0.13 0.11-0.26 0.26-0.4 0.45-0.14 0.2-0.28 0.46-0.43 0.78v3.2c0 0.07 0.1 0.15 0.3 0.23s0.53 0.15 0.99 0.22v0.54h-4.02v-0.53c0.65-0.15 0.97-0.29 0.97-0.45v-3.88c0-0.16 0-0.3-0.01-0.41s-0.02-0.2-0.04-0.27-0.03-0.12-0.06-0.16c-0.02-0.04-0.04-0.07-0.06-0.09-0.04-0.03-0.07-0.06-0.11-0.08s-0.08-0.04-0.14-0.05-0.13-0.02-0.22-0.03-0.2-0.02-0.34-0.02v-0.51c0.27-0.04 0.5-0.07 0.7-0.11 0.2-0.03 0.38-0.07 0.55-0.11s0.34-0.08 0.5-0.13 0.35-0.11 0.55-0.18l0.31 0.31 0.1 1.06c0.13-0.19 0.28-0.37 0.45-0.53s0.34-0.31 0.53-0.44c0.19-0.12 0.39-0.22 0.59-0.29 0.21-0.07 0.41-0.11 0.62-0.11 0.19 0 0.38 0.03 0.58 0.08 0.2 0.02 0.39 0.1 0.57 0.2z"/>
  <path d="m113.82 46.61v-0.53c0.32-0.08 0.56-0.15 0.73-0.22 0.16-0.06 0.24-0.14 0.24-0.23v-8.29c0-0.22-0.01-0.4-0.03-0.52s-0.07-0.21-0.13-0.27c-0.07-0.06-0.17-0.1-0.29-0.12-0.13-0.02-0.3-0.04-0.51-0.07v-0.51c0.47-0.07 0.91-0.15 1.31-0.23 0.4-0.09 0.76-0.2 1.1-0.35l0.32 0.3v7.14l1.93-1.72c0.16-0.15 0.27-0.26 0.31-0.35 0.05-0.08 0.05-0.15 0.02-0.19s-0.1-0.07-0.2-0.08-0.21-0.02-0.34-0.02v-0.53h3.27v0.53c-0.22 0.03-0.44 0.08-0.65 0.15-0.21 0.08-0.42 0.2-0.63 0.35l-2.23 1.69 2.65 3c0.07 0.08 0.14 0.14 0.2 0.19 0.07 0.05 0.14 0.08 0.22 0.1s0.18 0.03 0.28 0.04c0.1 0 0.23 0 0.37-0.01l0.05 0.53c-0.14 0.04-0.3 0.07-0.48 0.11s-0.35 0.07-0.52 0.1-0.32 0.06-0.45 0.08-0.23 0.03-0.27 0.03c-0.2 0-0.38-0.03-0.52-0.09s-0.27-0.16-0.37-0.3l-2.62-3.47v2.81c0 0.04 0.01 0.07 0.03 0.1s0.05 0.06 0.11 0.09c0.05 0.03 0.13 0.07 0.24 0.11s0.25 0.09 0.43 0.15v0.54h-3.57z"/>
  <path d="m133.01 45.06c-0.31 0.32-0.62 0.59-0.92 0.81-0.3 0.23-0.6 0.41-0.9 0.55s-0.59 0.24-0.88 0.31c-0.29 0.06-0.57 0.1-0.85 0.1-0.49 0-0.97-0.1-1.44-0.31-0.47-0.2-0.88-0.5-1.25-0.89-0.36-0.38-0.65-0.86-0.87-1.42s-0.33-1.19-0.33-1.9c0-0.78 0.12-1.49 0.36-2.12s0.57-1.18 0.99-1.63 0.91-0.8 1.48-1.04c0.56-0.24 1.18-0.36 1.83-0.36 0.26 0 0.53 0.02 0.78 0.06s0.51 0.09 0.74 0.16 0.45 0.14 0.64 0.23 0.35 0.18 0.48 0.29c0.02 0.02 0.02 0.06 0 0.13s-0.05 0.16-0.1 0.26-0.1 0.21-0.16 0.33-0.12 0.23-0.19 0.35c-0.06 0.11-0.12 0.21-0.18 0.3s-0.1 0.15-0.14 0.19l-0.48-0.1c-0.25-0.43-0.53-0.74-0.85-0.93s-0.67-0.29-1.05-0.29c-0.17 0-0.34 0.03-0.52 0.08s-0.35 0.14-0.52 0.26-0.33 0.28-0.49 0.48c-0.15 0.2-0.29 0.44-0.4 0.73s-0.2 0.63-0.27 1.02c-0.06 0.39-0.1 0.84-0.1 1.35 0 0.63 0.08 1.16 0.25 1.61 0.16 0.45 0.38 0.82 0.64 1.11s0.55 0.51 0.88 0.65c0.32 0.14 0.65 0.21 0.97 0.21 0.13 0 0.29-0.02 0.47-0.04 0.18-0.03 0.37-0.08 0.59-0.16 0.21-0.08 0.44-0.19 0.68-0.32s0.49-0.31 0.75-0.52c0.02 0.02 0.06 0.05 0.1 0.1s0.08 0.1 0.11 0.15c0.04 0.05 0.07 0.1 0.1 0.15 0.02 0.02 0.04 0.05 0.05 0.06z"/>
  <path d="m133.55 46.61v-0.53c0.33-0.07 0.58-0.14 0.73-0.22 0.16-0.08 0.23-0.15 0.23-0.22v-3.76c0-0.25 0-0.45-0.01-0.6 0-0.15-0.04-0.27-0.09-0.36-0.06-0.09-0.15-0.15-0.28-0.19s-0.33-0.07-0.59-0.09v-0.51c0.42-0.06 0.82-0.13 1.19-0.22 0.38-0.09 0.73-0.19 1.06-0.31h0.47v6.05c0 0.06 0.07 0.13 0.22 0.22s0.4 0.16 0.75 0.23v0.54h-3.68zm3.01-9.24c0 0.17-0.03 0.32-0.1 0.46s-0.15 0.25-0.26 0.35-0.24 0.17-0.39 0.23c-0.15 0.05-0.31 0.08-0.49 0.08-0.14 0-0.27-0.02-0.39-0.05s-0.23-0.08-0.32-0.15-0.16-0.15-0.22-0.25c-0.05-0.1-0.08-0.22-0.08-0.36 0-0.17 0.03-0.32 0.1-0.45 0.06-0.14 0.15-0.25 0.26-0.35s0.24-0.17 0.39-0.22 0.31-0.08 0.48-0.08c0.13 0 0.26 0.02 0.38 0.05s0.23 0.08 0.32 0.15 0.17 0.15 0.22 0.25c0.07 0.08 0.1 0.2 0.1 0.34z"/>
  <path d="m142.69 45.47c-0.65 0.47-1.2 0.81-1.65 1.03s-0.8 0.33-1.06 0.33c-0.21 0-0.41-0.04-0.6-0.12s-0.35-0.2-0.49-0.37c-0.14-0.16-0.25-0.37-0.33-0.63-0.08-0.25-0.12-0.55-0.12-0.89v-4.11h-0.89l-0.21-0.26 0.57-0.65h0.53v-1.53l1.48-1.09 0.28 0.24v2.38h2.23l0.26 0.26c-0.04 0.08-0.1 0.17-0.16 0.26s-0.13 0.18-0.2 0.26c-0.07 0.09-0.14 0.16-0.2 0.23-0.07 0.07-0.12 0.12-0.17 0.15-0.06-0.03-0.13-0.06-0.22-0.09s-0.19-0.06-0.3-0.08c-0.11-0.03-0.23-0.05-0.35-0.06s-0.25-0.02-0.38-0.02h-0.49v3.43c0 0.25 0.02 0.46 0.05 0.63s0.07 0.31 0.13 0.42c0.06 0.1 0.12 0.18 0.2 0.23s0.16 0.07 0.25 0.07 0.18-0.01 0.27-0.02c0.1-0.02 0.2-0.04 0.33-0.08s0.26-0.09 0.41-0.16 0.33-0.16 0.54-0.27z"/>
  <path d="m150.37 40.33c-0.15 0.04-0.27 0.07-0.36 0.1s-0.17 0.06-0.23 0.1-0.1 0.08-0.13 0.13-0.06 0.11-0.08 0.18l-2.45 6.33c-0.21 0.54-0.44 1-0.68 1.39s-0.5 0.7-0.78 0.95-0.56 0.43-0.86 0.55-0.6 0.18-0.91 0.18c-0.19 0-0.37-0.02-0.55-0.05s-0.34-0.08-0.48-0.13-0.25-0.11-0.34-0.16c-0.08-0.06-0.13-0.11-0.13-0.15s0.04-0.13 0.12-0.25 0.18-0.26 0.3-0.4 0.23-0.28 0.36-0.4c0.12-0.13 0.22-0.22 0.3-0.26 0.24 0.16 0.49 0.25 0.74 0.29s0.46 0.02 0.64-0.05c0.18-0.06 0.37-0.2 0.58-0.41s0.4-0.53 0.57-0.95l0.21-0.51-2.45-5.95c-0.05-0.13-0.14-0.23-0.26-0.31-0.12-0.07-0.31-0.14-0.55-0.19v-0.53h3.32v0.53c-0.19 0.03-0.34 0.05-0.44 0.08s-0.18 0.06-0.22 0.1-0.06 0.08-0.06 0.13c0.01 0.05 0.02 0.12 0.06 0.19l1.51 3.68 1.44-3.68c0.03-0.07 0.05-0.13 0.06-0.19 0.01-0.05-0.01-0.09-0.04-0.13-0.04-0.04-0.1-0.07-0.19-0.09-0.09-0.03-0.22-0.06-0.39-0.08v-0.53h2.4v0.49z"/>
</g>
<text fill="#000000" style="shape-inside:url(#rect687);white-space:pre" xml:space="preserve"/><text x="99.163223" y="46.815262" fill="#000000" font-family="Palatino" font-size="16px" text-align="center" text-anchor="middle" xml:space="preserve"><tspan x="99.163223" y="46.815262" font-family="Crimson" font-size="16px" font-weight="bold">of Berlin</tspan></text><text x="98.950424" y="25.535597" fill="#000000" font-family="Palatino" font-size="38.667px" text-align="center" text-anchor="middle" xml:space="preserve"><tspan x="98.950424" y="25.535597" font-family="Crimson" font-size="38.667px" font-weight="bold">Languages</tspan></text></svg>
